<svg viewBox="0 0 512 512" xmlns="http://www.w3.org/2000/svg"><path d="m512 311.96875v-111.9375l-63.652344-12.207031c-2.367187-6.667969-5.085937-13.226563-8.136718-19.621094l36.382812-53.644531-79.152344-79.15625-53.644531 36.386718c-6.394531-3.050781-12.953125-5.769531-19.621094-8.136718l-12.207031-63.652344h-111.9375l-12.207031 63.652344c-6.667969 2.367187-13.226563 5.085937-19.621094 8.136718l-53.644531-36.382812-79.15625 79.152344 36.386718 53.644531c-3.050781 6.394531-5.769531 12.953125-8.136718 19.621094l-63.652344 12.207031v111.9375l63.652344 12.207031c2.367187 6.667969 5.085937 13.226563 8.136718 19.621094l-36.382812 53.644531 79.152344 79.15625 53.644531-36.386718c6.394531 3.050781 12.953125 5.769531 19.621094 8.136718l12.207031 63.652344h111.9375l12.207031-63.652344c6.667969-2.367187 13.226563-5.085937 19.621094-8.136718l53.644531 36.382812 79.15625-79.152344-36.386718-53.644531c3.050781-6.394531 5.769531-12.953125 8.136718-19.621094zm-74.148438 81.792969-44.089843 44.089843-47.925781-32.503906-7.988282 4.265625c-9.914062 5.296875-20.382812 9.636719-31.109375 12.902344l-8.660156 2.632813-10.902344 56.851562h-62.351562l-10.902344-56.851562-8.660156-2.636719c-10.730469-3.261719-21.195313-7.601563-31.109375-12.898438l-7.988282-4.265625-47.925781 32.503906-44.089843-44.089843 32.503906-47.925781-4.265625-7.988282c-5.296875-9.914062-9.636719-20.382812-12.902344-31.109375l-2.632813-8.664062-56.851562-10.898438v-62.351562l56.851562-10.902344 2.636719-8.660156c3.261719-10.730469 7.601563-21.195313 12.898438-31.109375l4.265625-7.988282-32.503906-47.925781 44.089843-44.089843 47.925781 32.503906 7.988282-4.265625c9.914062-5.296875 20.382812-9.636719 31.109375-12.902344l8.664062-2.632813 10.898438-56.851562h62.351562l10.902344 56.851562 8.660156 2.636719c10.730469 3.261719 21.195313 7.601563 31.109375 12.898438l7.988282 4.265625 47.925781-32.503906 44.089843 44.089843-32.503906 47.925781 4.265625 7.988282c5.296875 9.914062 9.636719 20.382812 12.902344 31.109375l2.632813 8.664062 56.851562 10.898438v62.351562l-56.851562 10.902344-2.636719 8.660156c-3.261719 10.730469-7.601563 21.195313-12.898438 31.109375l-4.265625 7.988282zm0 0"/><path d="m256 111.386719c-79.738281 0-144.613281 64.875-144.613281 144.613281s64.875 144.613281 144.613281 144.613281 144.613281-64.875 144.613281-144.613281-64.875-144.613281-144.613281-144.613281zm-32.929688 194.421875c-3.566406-11.226563-5.925781-22.882813-7-34.808594h79.863282c-1.078125 11.925781-3.433594 23.578125-7.003906 34.808594zm52.847657 30c-5.582031 9.960937-12.238281 19.378906-19.917969 28.105468-7.679688-8.726562-14.335938-18.144531-19.917969-28.105468zm-133.550781-64.808594h43.585937c.902344 11.855469 2.882813 23.492188 5.871094 34.808594h-39.039063c-5.21875-10.777344-8.800781-22.488282-10.417968-34.808594zm146.554687-64.808594c3.574219 11.230469 5.933594 22.882813 7.011719 34.808594h-79.867188c1.078125-11.925781 3.441406-23.578125 7.011719-34.808594zm-52.828125-30c5.574219-9.949218 12.234375-19.355468 19.90625-28.078125 7.671875 8.722657 14.332031 18.128907 19.90625 28.078125zm-50.132812 64.808594h-43.59375c1.617187-12.320312 5.199218-24.03125 10.417968-34.808594h39.042969c-2.988281 11.316406-4.964844 22.953125-5.867187 34.808594zm140.085937 30h43.585937c-1.617187 12.320312-5.199218 24.03125-10.417968 34.808594h-39.039063c2.988281-11.316406 4.96875-22.953125 5.871094-34.808594zm-.007813-30c-.902343-11.855469-2.878906-23.492188-5.867187-34.808594h39.042969c5.222656 10.777344 8.800781 22.488282 10.417968 34.808594zm12.140626-64.808594h-28.679688c-4.480469-9.894531-9.808594-19.417968-15.945312-28.480468 17.054687 5.933593 32.292968 15.789062 44.625 28.480468zm-119.734376-28.480468c-6.140624 9.0625-11.464843 18.585937-15.945312 28.480468h-28.679688c12.332032-12.691406 27.566407-22.546875 44.625-28.480468zm-44.625 188.097656h28.664063c4.476563 9.890625 9.796875 19.410156 15.929687 28.46875-17.042968-5.933594-32.269531-15.785156-44.59375-28.46875zm119.765626 28.46875c6.132812-9.058594 11.453124-18.578125 15.929687-28.46875h28.660156c-12.320312 12.683594-27.546875 22.535156-44.589843 28.46875zm0 0"/></svg>